# Blender v2.79 (sub 0) OBJ File: ''
# www.blender.org
mtllib two_cubes.mtl
o Cube.001
v -0.379576 -0.281036 -0.038375
v -0.379576 1.718964 -0.038375
v -0.379576 -0.281036 -2.038375
v -0.379576 1.718964 -2.038375
v 1.620425 -0.281036 -0.038375
v 1.620425 1.718964 -0.038375
v 1.620425 -0.281036 -2.038375
v 1.620425 1.718964 -2.038375
vt 0.000001 3.000000
vt 1.000000 2.000000
vt 1.000000 2.999999
vt 0.000001 2.000000
vt 1.000000 1.000000
vt 0.000000 1.000000
vt 1.000000 0.000000
vt 0.000000 0.000000
vt 0.999999 -1.000000
vt 1.999999 -0.000000
vt 2.000000 1.000000
vt -0.999999 1.000000
vt -0.000000 -1.000000
vt -1.000000 0.000001
vn -1.0000 0.0000 0.0000
vn 0.0000 0.0000 -1.0000
vn 1.0000 0.0000 0.0000
vn 0.0000 0.0000 1.0000
vn 0.0000 -1.0000 0.0000
vn 0.0000 1.0000 0.0000
usemtl Material.001
s off
f 2/1/1 3/2/1 1/3/1
f 4/4/2 7/5/2 3/2/2
f 8/6/3 5/7/3 7/5/3
f 6/8/4 1/9/4 5/7/4
f 7/5/5 1/10/5 3/11/5
f 4/12/6 6/8/6 8/6/6
f 2/1/1 4/4/1 3/2/1
f 4/4/2 8/6/2 7/5/2
f 8/6/3 6/8/3 5/7/3
f 6/8/4 2/13/4 1/9/4
f 7/5/5 5/7/5 1/10/5
f 4/12/6 2/14/6 6/8/6
o Cube
v 1.000000 -1.000000 -1.000000
v 1.000000 -1.000000 1.000000
v -1.000000 -1.000000 1.000000
v -1.000000 -1.000000 -1.000000
v 1.000000 1.000000 -0.999999
v 0.999999 1.000000 1.000001
v -1.000000 1.000000 1.000000
v -1.000000 1.000000 -1.000000
vt 0.000000 0.000000
vn 0.0000 -1.0000 0.0000
vn 0.0000 1.0000 0.0000
vn 1.0000 -0.0000 0.0000
vn 0.0000 -0.0000 1.0000
vn -1.0000 -0.0000 -0.0000
vn 0.0000 0.0000 -1.0000
usemtl Material
s off
f 10/1/7 12/1/7 9/1/7
f 16/1/8 14/1/8 13/1/8
f 13/1/9 10/1/9 9/1/9
f 14/1/10 11/1/10 10/1/10
f 11/1/11 16/1/11 12/1/11
f 9/1/12 16/1/12 13/1/12
f 10/1/7 11/1/7 12/1/7
f 16/1/8 15/1/8 14/1/8
f 13/1/9 14/1/9 10/1/9
f 14/1/10 15/1/10 11/1/10
f 11/1/11 15/1/11 16/1/11
f 9/1/12 12/1/12 16/1/12
